<svg width="56" height="64" viewBox="0 0 56 64" fill="none" xmlns="http://www.w3.org/2000/svg">
<path d="M55.9057 18.7672C55.9053 17.6939 55.6793 16.7454 55.2223 15.9314C54.7735 15.131 54.1012 14.4601 53.1996 13.9296C45.7566 9.56986 38.3064 5.22342 30.8658 0.859195C28.8599 -0.31725 26.915 -0.274361 24.9239 0.918972C21.9614 2.69386 7.12906 11.3265 2.70922 13.9272C0.889 14.9976 0.00328125 16.6359 0.00284375 18.7652C0 27.533 0.00284375 36.3005 0 45.0685C0 46.1183 0.216781 47.0483 0.653625 47.8501C1.10272 48.6747 1.78434 49.3641 2.70681 49.9065C7.12687 52.5072 21.9612 61.1392 24.9231 62.9145C26.915 64.1085 28.8599 64.1512 30.8665 62.9743C38.3073 58.6099 45.7579 54.2636 53.202 49.9039C54.1244 49.3616 54.8061 48.6719 55.2551 47.8479C55.6913 47.0461 55.9086 46.1161 55.9086 45.0661C55.9086 45.0661 55.9086 27.5352 55.9057 18.7672Z" fill="#A179DC"/>
<path d="M28.04 31.8317L0.653809 47.8503C1.1029 48.675 1.78453 49.3643 2.707 49.9068C7.12706 52.5074 21.9614 61.1394 24.9232 62.9148C26.9152 64.1088 28.8601 64.1514 30.8667 62.9745C38.3075 58.6101 45.7581 54.2639 53.2021 49.9041C54.1246 49.3619 54.8062 48.6721 55.2553 47.8481L28.04 31.8317Z" fill="#280068"/>
<path d="M55.9067 18.7673C55.9062 17.694 55.6803 16.7455 55.2233 15.9315L28.0408 31.8315L55.2561 47.848C55.6923 47.0462 55.9091 46.1162 55.9095 45.0662C55.9095 45.0662 55.9095 27.5353 55.9067 18.7673Z" fill="#390091"/>
<path d="M44.1637 25.8434V28.8375H47.1111V25.8434H48.5848V28.8375H51.5321V30.3346H48.5848V33.3288H51.5321V34.8258H48.5848V37.82H47.1111V34.8258H44.1637V37.82H42.69V34.8258H39.7427V33.3288H42.69V30.3346H39.7427V28.8375H42.69V25.8434H44.1637ZM47.1111 30.3346H44.1637V33.3288H47.1111V30.3346Z" fill="white"/>
<path d="M28.1 10.8058C35.7877 10.8058 42.4997 15.0472 46.0948 21.3516L46.0597 21.2909L37.0147 26.5816C35.2326 23.5164 31.9656 21.4478 28.218 21.4052L28.1 21.4046C22.385 21.4046 17.7518 26.1111 17.7518 31.9168C17.7518 33.8154 18.25 35.595 19.1165 37.1322C20.9003 40.2956 24.2534 42.4292 28.1 42.4292C31.9703 42.4292 35.3425 40.2685 37.1172 37.0713L37.0741 37.148L46.1055 42.4631C42.5499 48.7141 35.9298 52.9425 28.3315 53.0267L28.1 53.028C20.388 53.028 13.657 48.7605 10.0709 42.4228C8.32027 39.3288 7.3186 35.7418 7.3186 31.9168C7.3186 20.2577 16.6225 10.8058 28.1 10.8058Z" fill="white"/>
</svg>
